<?xml version="1.0" encoding="utf-8"?>
<!-- Generator: Adobe Illustrator 16.0.4, SVG Export Plug-In . SVG Version: 6.00 Build 0)  -->
<!DOCTYPE svg PUBLIC "-//W3C//DTD SVG 1.1//EN" "http://www.w3.org/Graphics/SVG/1.1/DTD/svg11.dtd">
<svg version="1.1" id="Layer_1" xmlns="http://www.w3.org/2000/svg" xmlns:xlink="http://www.w3.org/1999/xlink" x="0px" y="0px"
	 width="100px" height="100px" viewBox="0 0 100 100" enable-background="new 0 0 100 100" xml:space="preserve">
<path opacity="0.5" fill="#FFFFFF" d="M61.167,48.823c-0.161-0.749-1.454-1.87-2.152-2.182c-0.998-0.447-3.189-1.117-4.269-0.945
	c-1.523,0.243-4.312,1.806-5.506,2.781c-2.484,2.025-8.922,9.202-8.922,9.202L32,66.372c0,0.576,0,1.326,0,2.038l9.66-10.276
	c0.071-0.08,0.146-0.163,0.218-0.244C41.753,57.262,41.496,56.504,42,56c-0.504,0.504-0.247,1.262-0.123,1.89
	c1.97-2.215,4.191-4.666,5.706-6.007c1.232-1.09,4.021-2.91,5.525-3.577c0.903-0.401,2.917-0.779,3.898-0.664
	c0.499,0.058,1.426,0.604,1.745,0.992c0.464,0.564,1.101,2.056,0.931,2.766c-0.806,3.333-6.176,8.27-8.649,10.645
	c-1.717,1.646-4.993,5.104-6.772,6.685c-2.305,2.046-7.174,5.838-9.676,7.638C30.504,79.3,17.322,88.936,15.76,89.689
	c1.41-2.991,12.087-16.393,15.826-20.838L32,68.41c0-0.712,0-1.462,0-2.038l-0.199,0.208l-9.012,10.362
	c0,0-9.622,10.34-9.918,14.471c-0.04,0.567,0.573,1.588,1.135,1.675c1.293-0.038,9.876-7.547,15.043-11.021
	c2.493-1.196,7.06-4.478,9.268-6.165c2.668-2.039,7.748-6.446,10.207-8.73c2.337-2.171,7.199-6.37,9.147-8.896
	C59.211,56.282,61.696,51.285,61.167,48.823z"/>
<path opacity="0.5" fill="#FFFFFF" d="M52.969,47.174c0.275,0.597,1.846,3.382,2.012,4.435c-2.125-1.562-2.985-2.323-3.429-3.396
	C51.535,47.773,52.544,47.063,52.969,47.174"/>
<path opacity="0.5" fill="#FFFFFF" d="M54.346,59.882c-1.052-1.139-2.052-2.986-4.287-4.407c1.05,2.932,1.821,4.304,2.713,5.946
	C53.301,61.578,54.339,60.432,54.346,59.882"/>
<path opacity="0.5" fill="#FFFFFF" d="M44.045,54.856c1.362,2.391,2.493,4.334,2.764,5.906c-1.668-1.209-3.076-1.829-4.741-3.731
	C42.018,56.299,43.31,54.839,44.045,54.856"/>
<path opacity="0.5" fill="#FFFFFF" d="M46.416,67.724c-0.44-0.835-2.791-2.438-3.682-2.575c-0.189,0.538,1.478,3.127,1.975,4.191
	C44.954,69.12,45.948,68.181,46.416,67.724"/>
<path opacity="0.5" fill="#FFFFFF" d="M27.545,72.627c0.921-0.084,1.968,2.363,2.188,2.984c-1.393-0.378-3.045-0.871-3.643-1.168
	C26.602,74.303,26.966,72.68,27.545,72.627"/>
<path opacity="0.5" fill="#FFFFFF" d="M85.365,26.23c0.129-0.845-1.85-1.918-2.019-2.755c-0.153-0.751,1.121-2.364,0.679-2.989
	c-0.325-0.456-1.714-0.022-2.224-0.251c-0.85-0.382-1.777-2.501-2.706-2.561c-0.902-0.057-2.914,2.135-2.914,2.135
	s-2.176-0.664-2.687-0.224c-0.565,0.487-0.158,2.431-0.745,2.894c-0.659,0.521-2.907,0.06-3.26,0.823
	c-0.301,0.654,1.111,2.243,0.66,2.806c-0.436,0.543-2.405-0.031-2.728,0.588c-0.323,0.626,0.969,2.276,0.478,2.783
	c-0.511,0.526-2.522-0.351-2.926,0.264c-0.357,0.545,0.683,2.063,0.304,2.597c-0.427,0.606-2.568,0.584-2.656,1.32
	c-0.086,0.721,2.009,1.678,1.719,2.345c-0.353,0.808-3.023,0.354-3.325,1.182c-0.19,0.522,0.91,1.553,0.764,2.09
	c-0.238,0.884-2.313,1.909-2.332,2.824c-0.014,0.636,1.223,1.619,1.18,2.253c-0.045,0.699-1.612,2.289-1.612,2.289l2.152,2.182
	c0,0,1.514-1.671,2.188-1.604c0.795,0.08,1.822,2,2.606,1.849c0.635-0.123,0.807-1.921,1.4-2.173
	c0.516-0.218,1.513,1.05,2.051,0.899c0.734-0.206,0.979-2.348,1.723-2.516c0.695-0.157,2.209,1.284,2.737,0.803
	c0.609-0.555-0.509-2.663,0.018-3.296c0.497-0.597,2.599-0.494,2.859-1.227c0.199-0.557-0.963-1.839-0.582-2.292
	c0.526-0.629,2.874,0.212,3.239-0.523c0.262-0.528-0.948-1.785-0.618-2.273c0.621-0.921,3.96-0.471,4.153-1.563
	c0.104-0.583-1.557-1.338-1.397-1.908c0.232-0.835,2.838-1.184,2.797-2.049c-0.027-0.618-1.883-1.134-1.759-1.74
	c0.126-0.621,2.313-0.925,2.042-1.497c-0.136-0.29-1.212,0.309-1.279-0.004C83.216,27.096,85.269,26.848,85.365,26.23z
	 M80.193,26.899c-0.086,0.303,0.758,0.703,0.746,1.018c-0.016,0.409-1.213,0.573-1.32,0.967c-0.166,0.609,1.576,1.411,1.493,2.038
	c-0.091,0.688-2.144,0.606-2.505,1.199c-0.338,0.558,1.01,1.946,0.695,2.519c-0.327,0.603-2.254-0.258-2.73,0.234
	c-0.512,0.529,1.032,2.344,0.543,2.896c-0.353,0.399-1.57-0.883-2.037-0.625c-0.904,0.5,0.606,3.336-0.05,4.136
	c-0.524,0.635-2.671-0.667-3.29-0.125c-0.471,0.414,0.817,2.07,0.348,2.487c-0.377,0.335-1.273-1.003-1.778-0.961
	c-0.643,0.052-0.98,1.804-1.58,2.035c-0.512,0.196-1.502-1-2.028-0.842c-0.56,0.168-0.35,1.92-0.879,2.17
	c-0.421,0.199-1.153-0.832-1.608-0.941c-0.695-0.167-2.242,1.348-2.737,0.832c-0.412-0.429,1.071-1.499,1.131-2.09
	c0.051-0.52-0.893-1.45-0.745-1.951c0.256-0.867,2.699-1.261,2.918-2.138c0.133-0.524-1.363-1.21-1.275-1.743
	c0.149-0.916,3.076-0.546,3.434-1.401c0.231-0.555-1.501-1.345-1.421-1.94c0.104-0.784,2.471-0.642,2.871-1.322
	c0.271-0.458-0.964-1.594-0.653-2.026c0.312-0.437,1.751,0.362,2.143-0.003c0.575-0.537-0.162-2.449,0.218-3.136
	c0.296-0.537,1.871-0.516,2.235-1.01c0.333-0.454-0.45-1.778-0.141-2.247c0.297-0.449,1.698,0.013,2.13-0.307
	c0.652-0.485-0.005-2.765,0.697-3.175c0.483-0.282,1.407,1.105,1.964,1.067c0.664-0.043,1.048-2.055,1.712-2.038
	c0.645,0.019,0.485,2.082,1.074,2.346c0.606,0.271,2.149-1.3,2.541-0.766c0.393,0.536-1.676,1.554-1.495,2.193
	c0.14,0.493,1.822,0.312,1.879,0.821C82.774,25.839,80.402,26.155,80.193,26.899z"/>
<path opacity="0.5" fill="#FFFFFF" d="M44.342,38.455c-0.499-0.973-2.335-2.345-3.286-2.886c-0.665-0.379-2.333-0.758-3.032-0.446
	c-2.301,1.027-4.86,5.986-5.56,8.407c-0.886,3.063-1.399,9.467-1.77,12.635c-0.39,3.335-0.943,10.035-1.01,13.394
	c-0.05,2.466-0.013,7.171,0.352,10.097c0.046,0.372,0.097,0.715,0.154,1.021c0.251,6.223-0.734,17.586,0,18.649
	c0.402,0.402,1.588,0.293,2.022-0.075c3.157-2.679,5.812-16.552,5.812-16.552l2.453-10.835l0.579-2.558l2.146-12.13
	c0,0,1.984-9.437,2.15-12.637C45.432,43,45.046,39.827,44.342,38.455z M43.583,47.888c-0.176,1.914-0.787,4.937-1.38,7.72
	c-0.188,0.88-0.374,1.736-0.544,2.526c-0.183,0.85-0.348,1.622-0.477,2.264c-0.52,2.595-1.205,7.854-1.832,10.425
	c-0.162,0.664-0.368,1.479-0.606,2.405c-1.789,6.941-5.456,20.111-6.851,22.676c-0.21-1.14-0.289-8.807-0.331-15.27
	c-0.004-0.71-0.009-1.405-0.013-2.075c-0.014-2.361-0.023-4.416-0.035-5.715c-0.009-1.052,0.006-2.464,0.042-3.989
	c0.017-0.743,0.039-1.515,0.065-2.284c0.078-2.275,0.194-4.536,0.336-6.046c0.223-2.369,1.076-7.056,1.391-9.414
	c0.452-3.398,1.261-10.648,3.474-13.267c0.471-0.557,2.052-0.927,2.78-0.885c0.501,0.028,1.491,0.453,1.832,0.821
	c0.674,0.724,1.558,2.572,1.77,3.538C43.554,42.926,43.735,46.25,43.583,47.888z"/>
<path opacity="0.5" fill="#FFFFFF" d="M44.199,40.761c-0.643,0.131-3.818,0.51-4.766,1c2.515,0.79,3.637,1.035,4.766,0.758
	C44.563,42.273,44.54,41.038,44.199,40.761"/>
<path opacity="0.5" fill="#FFFFFF" d="M33.134,47.161c1.54,0.176,3.622-0.109,6.09,0.854c-2.986,0.885-4.55,1.074-6.402,1.323
	C32.384,49.007,32.694,47.491,33.134,47.161"/>
<path opacity="0.5" fill="#FFFFFF" d="M43.276,52.501c-2.733,0.312-4.97,0.549-6.397,1.26c1.961,0.632,3.293,1.4,5.811,1.619
	C43.31,54.987,43.725,53.083,43.276,52.501"/>
<path opacity="0.5" fill="#FFFFFF" d="M31.495,58.193c0.934-0.14,3.616,0.809,4.253,1.445c-0.321,0.471-3.396,0.656-4.548,0.885
	C31.233,60.197,31.403,58.841,31.495,58.193"/>
<path opacity="0.5" fill="#FFFFFF" d="M41.189,64.841c-0.945,0.477-3.045,0.334-3.922,0.99c1.067,0.598,2.573,1.24,3.261,1.464
	C40.433,67.048,41.072,65.572,41.189,64.841"/>
<path opacity="0.5" fill="#FFFFFF" d="M30.778,69.873c0.864-0.103,2.697,0.848,3.897,1.328c-1.327,0.561-2.795,0.656-3.897,1.137
	C30.884,71.999,30.768,70.482,30.778,69.873"/>
<path opacity="0.5" fill="#FFFFFF" d="M38.693,76.312c-0.477-0.793-3.07-0.19-3.701,0c1.129,0.899,2.503,1.941,3.095,2.247
	C37.898,78.063,38.993,76.811,38.693,76.312"/>
<path opacity="0.5" fill="#FFFFFF" d="M54.324,7.897c0.053-0.671-1.771-2.034-1.771-2.034s0.579-2.919,0-3.613
	c-0.595-0.714-2.854-0.209-3.663-0.669c-0.487-0.275-0.958-1.653-1.518-1.644c-0.765,0.011-1.315,1.992-2.011,2.313
	c-0.775,0.357-2.812-0.604-3.415,0c-0.442,0.442,0.571,2.246,0,2.503c-0.291,0.131-0.444-1.09-0.758-1.031
	c-0.621,0.121,0.426,2.064,0,2.533c-0.417,0.457-1.929-0.734-2.444-0.392c-0.721,0.481,0.536,2.787,0,3.469
	c-0.365,0.464-1.956-0.428-2.364,0c-0.766,0.801,1.57,3.23,1.194,4.273c-0.199,0.555-1.929,0.322-2.201,0.845
	c-0.376,0.729,1.69,2.126,1.494,2.924c-0.14,0.574-1.861,0.395-2.193,0.884c-0.438,0.644,0.889,2.277,0.699,3.033
	c-0.198,0.799-2.561,1.142-2.648,1.962c-0.076,0.709,1.981,1.08,2.266,1.734c0.303,0.698-1.278,2.161-1.012,2.874
	c0.196,0.525,1.809,0.58,1.937,1.125c0.148,0.629-1.201,1.829-0.925,2.413c0.341,0.723,2.499,0.417,3.032,1.012
	c0.454,0.505,0,2.713,0,2.713l3.032,0.446c0,0,0.356-2.203,0.892-2.653c0.487-0.409,2.011,0.007,2.515-0.379
	c0.728-0.558,0.328-2.836,0.9-3.551c0.347-0.435,1.829-0.156,2.138-0.619c0.49-0.734-1.455-2.618-1.011-3.379
	c0.366-0.628,2.375,0.495,2.906,0c0.543-0.506-0.741-2.221-0.504-2.924c0.207-0.62,2.044-0.677,2.274-1.291
	c0.257-0.688-1.64-1.792-1.516-2.515c0.118-0.695,2.213-0.628,2.526-1.261c0.311-0.625-1.317-1.874-1.137-2.547
	c0.187-0.696,2.305-0.496,2.654-1.126c0.407-0.735-1.296-2.275-1.264-3.115C52.456,9.462,54.265,8.642,54.324,7.897z M49.774,10.209
	c-0.003,0.539,1.197,1.396,1.011,1.9c-0.195,0.529-1.726,0.678-1.895,1.215c-0.183,0.585,0.763,1.844,0.505,2.4
	c-0.33,0.713-2.307,1.249-2.4,2.028c-0.063,0.533,1.431,1.222,1.264,1.731c-0.167,0.505-1.812,0.18-2.022,0.67
	c-0.312,0.727,1.202,2.551,0.631,3.099c-0.433,0.416-2.094-0.516-2.404,0c-0.479,0.793,1.547,2.936,0.899,3.598
	c-0.379,0.385-1.816-0.416-2.161,0c-0.578,0.696,0.548,2.898,0,3.617c-0.317,0.416-1.625,0.205-2.014,0.552
	c-0.442,0.397-0.429,2.227-1.018,2.149c-0.709-0.094-0.402-2.238-0.948-2.701c-0.354-0.3-1.621-0.284-1.709-0.741
	c-0.111-0.575,1.426-1.439,1.231-1.991c-0.183-0.518-1.733-0.608-1.876-1.137c-0.17-0.623,1.043-1.929,0.707-2.479
	c-0.265-0.43-1.875-0.363-1.827-0.866c0.058-0.625,2.156-0.564,2.21-1.189c0.073-0.82-2.246-1.783-2.042-2.58
	c0.256-1.002,3.437-1.46,3.307-2.486c-0.067-0.528-1.822-0.753-1.709-1.273c0.156-0.72,2.533-0.547,2.657-1.274
	c0.116-0.675-1.717-1.721-1.426-2.341c0.278-0.591,2.193-0.322,2.443-0.927c0.266-0.642-1.013-2.248-0.512-2.729
	c0.456-0.437,2.133,0.495,2.525,0c0.255-0.319-0.321-1.381,0-1.635c0.247-0.196,1.066,0.249,1.261,0
	c0.477-0.609-0.671-2.709,0-3.096c0.444-0.255,1.293,1.21,1.773,1.031c0.622-0.233,0.221-2.503,0.885-2.503
	c0.663,0,0.307,2.176,0.883,2.503c0.562,0.318,2.133-1.029,2.527-0.52c0.408,0.525-0.988,2.023-0.631,2.585
	c0.299,0.471,1.964,0.397,2.021,0.953C52.007,8.579,49.779,9.398,49.774,10.209z"/>
</svg>
