<?xml version="1.0" encoding="utf-8"?>
<!-- Generator: Adobe Illustrator 16.0.4, SVG Export Plug-In . SVG Version: 6.00 Build 0)  -->
<!DOCTYPE svg PUBLIC "-//W3C//DTD SVG 1.1//EN" "http://www.w3.org/Graphics/SVG/1.1/DTD/svg11.dtd">
<svg version="1.1" id="Layer_1" xmlns="http://www.w3.org/2000/svg" xmlns:xlink="http://www.w3.org/1999/xlink" x="0px" y="0px"
	 width="100px" height="100px" viewBox="0 0 100 100" enable-background="new 0 0 100 100" xml:space="preserve">
<path opacity="0.5" fill="#FFFFFF" stroke="#FFFFFF" stroke-width="0.5" stroke-miterlimit="10" d="M59.604,35.056
	c-0.606-0.352-0.792-0.352-1.028-0.821c-0.674-0.998-4.429-15.195-4.31-15.604c0.117-0.412,1.618-0.265,2.148-0.851
	c0.528-0.587-0.191-1.556-0.015-2.436c0.177-0.879,1.914,0.082,2.305-0.518c0.694-1.104-1.565-1.916-1.096-2.679
	c0.021-0.274,1.861,0.03,1.89-1.378c0.06-1.467-0.721-2.008-1.01-2.258c-0.439-0.47,0.676-0.441,1.203-1.966
	c0.323-1.701-1.848-1.074-2.141-1.524C57.037,3.979,57.649,2,55.791,1.413c-1.858-0.586-2.563,0.654-3.521,1.026
	c-0.958,0.371-2.679-0.235-3.227,0.821c-0.546,1.056,1.174,2.815,0.821,3.696c-0.352,0.88-1.662,0.529-2.053,1.232
	c-0.391,0.705,0.293,2.209-0.059,2.699c-0.353,0.488-1.761,0.253-2.288,0.917c-0.528,0.666,0.928,2.485,0.233,2.895
	c-0.693,0.41-2.346,0.724-2.619,1.486c-0.274,0.763,0.488,2.151,0.665,2.659c0.175,0.508-0.724,1.839-0.392,2.778
	c0.332,0.938,2.582,0.175,2.972-0.04c0.392-0.216,0.998,0.431,1.781,0.508c0.782,0.078,5.122,16.562,5.397,16.836
	c0.272,0.274,1.31-0.098,1.406-0.587c0.099-0.488-4.809-18.361-5.866-18.361c-1.056,0-0.82,0.958-1.231,1.115
	c-0.412,0.156-0.978-0.587-1.526-0.469c-0.546,0.116-1.407,1.114-1.955,0.605c-0.548-0.508,0.684-1.545,0.391-2.424
	c-0.293-0.881-0.899-0.998-0.899-2.054c0-1.055,2.894-0.802,3.168-1.466c0.274-0.664-0.508-1.74-0.411-2.346
	c0.099-0.606,2.063-0.998,2.366-1.643c0.304-0.645-0.215-1.545,0.098-2.229c0.313-0.685,2.308-0.822,2.522-1.467
	c0.216-0.645-1.544-2.893-1.232-3.461c0.313-0.567,1.878-0.195,2.407-0.411c0.526-0.214,1.544-1.622,2.639-1.172
	c1.096,0.449,0.551,1.811,0.882,2.815c0.329,0.785,3.05,0.675,2.403,1.291c-0.396,0.472-1.437,0.587-1.408,1.819
	c-0.137,0.469,2.242,1.965,0.822,2.582c-0.909,0.028-1.584,0.449-1.584,0.82c-0.088,1.174,1.544,2.278,1.271,2.552
	c-0.272,0.274-1.799-0.381-2.15,0.323c-0.353,0.703,0.88,1.817,0.234,2.17c-0.646,0.352-0.47-0.88-0.997-0.411
	c-0.528,0.47-0.116,0.763-0.528,0.997c-0.41,0.235,0.06,0.059-0.704-0.41c-0.763-0.47-0.704,0.117-1.173,0.587
	c-0.47,0.469,4.81,17.012,5.279,17.951c0.469,0.938,0.442-0.875,1.292-0.469c0.849,0.405-0.078,0.566,0,0.997
	c2.287,2.463,21.763,36.255,13.726,60.6c-0.585,0.606-2.033,0.899-2.404,0.351c-1.994-11.791-2.346-34.082-14.49-51.682
	c-0.703-0.997-0.881-0.058-1.407,0.705c11.674,16.66,13.865,50.919,14.49,51.682c0.429,0.881,0.352,1.153,4.399,0.294
	C83.598,90.259,67.758,41.568,59.604,35.056z"/>
<path opacity="0.5" fill="#FFFFFF" stroke="#FFFFFF" stroke-width="0.4" stroke-miterlimit="10" d="M50.065,41.366
	c-0.985-1.199-4.062-2.477-5.634-3.437c-0.347-0.12-0.882,0.452-0.828,0.719c3.931,1.905,5.52,3.744,6.461,3.517
	C50.225,42.044,50.167,41.538,50.065,41.366z"/>
<path opacity="0.5" fill="#FFFFFF" stroke="#FFFFFF" stroke-miterlimit="10" d="M52.369,22.901c-0.233-0.357-0.75-0.446-0.714,0
	c0.036,0.446,2.407,8.774,2.782,9.488c0.375,0.713,0.838,0.411,0.855,0C55.311,31.979,52.6,23.258,52.369,22.901z"/>
<path opacity="0.5" fill="#FFFFFF" stroke="#FFFFFF" stroke-miterlimit="10" d="M60.953,40.747c-1.115-0.285-1.37-0.118-1.455,0.586
	c-0.084,0.705,11.288,20.022,11.311,52.563c0.82,1.407,0.939,0.626,1.29,0C73.653,72.82,62.065,41.032,60.953,40.747z"/>
<path opacity="0.5" fill="#FFFFFF" stroke="#FFFFFF" stroke-miterlimit="10" d="M55.465,40.192c-0.288-0.061-0.849,0.5-0.876,0.795
	c1.358,1.432,3.433,3.912,4.542,5.684c0.263,0.054,0.632-0.083,0.721-0.338C59.376,44.367,57.256,42.166,55.465,40.192z"/>
<path opacity="0.5" fill="#FFFFFF" stroke="#FFFFFF" stroke-width="0.2" stroke-miterlimit="10" d="M67.459,92.203
	c-3.511-4.079-7.608-6.479-14.162-16.078c-5.067-6.934-12.056-23.252-16.072-30.356c-0.181-0.116-0.701,0.146-0.856,0
	c0.062-1.109,0.327-6.406,0.63-7.249c0.3-0.033,0.201,2.188,0.423,2.391c0.23,0.212,0.978-0.152,1.252,0
	c0.543,0.303,0.337,1.58,0.906,1.832c0.812,0.36,2.031-1.36,2.915-1.457c1.974,1.203,8.13,6.366,10.936,7.56
	c0.405-0.074,1.048-0.976,0.922-1.369c-2.698-2.113-11.792-7.508-11.99-7.508c-0.197,0-1.571,1.879-2.173,1.581
	c-0.575-0.285,0.084-1.472-0.335-1.958c-0.336-0.389-1.136,0.555-1.526,0.219c-0.459-0.397,0.057-2.033-0.272-2.542
	c-0.207-0.318-0.575-0.051-0.83-0.33c-0.275-0.3,0.628-1.11,0.593-1.515c-0.045-0.504-1.438-0.91-1.449-1.417
	c-0.008-0.324,0.938-0.454,1.053-0.757c0.207-0.55-1.214-1.54-1.053-2.107c0.146-0.523,1.4-0.942,1.802-1.305
	c0.464-0.417,0.197-1.602,0.767-1.858c0.683-0.308,1.559,1.969,2.305,1.911c0.683-0.054,0.571-2.363,1.252-2.438
	c0.71-0.078,0.739,2.072,1.251,2.569c0.42,0.406,2.066-0.138,2.306,0.395c0.291,0.646-1.773,1.41-1.888,2.108
	c-0.034,0.205,0.483,0.453,0.505,0.658c0.022,0.207-0.508,0.451-0.505,0.659c2.769,3.128,6.053,5.749,8.244,6.718
	c0.308-0.063,0.763-0.746,0.691-1.054c-1.476-2.173-8.349-4.894-7.77-6.933c0.374-1.316,1.9-1.533,1.759-2.503
	c-0.149-1.03-1.966-0.428-2.659-0.86c-0.776-0.484-0.963-2.784-1.838-3.05c-0.668-0.204-1.065,1.879-1.759,1.954
	c-0.399,0.044-1.184-1.863-1.696-1.98c-0.596-0.137-2.133,1.551-2.567,1.12c-0.55-0.545,1.422-1.65,1.408-2.425
	c-0.015-0.849-1.7-1.088-2.267-1.72c-0.711-0.791-0.019-3.171-0.979-3.628c-0.954-0.454-1.871,1.759-2.895,2.024
	c-1.01,0.261-3.264-1.671-4.106-1.056c-0.977,0.715,0.886,2.714,0.703,3.911c-0.147,0.975-2.435,1.885-2.267,2.855
	c0.106,0.618,2.425,1.134,2.425,1.134s-0.82,1.225-0.743,1.487c0.087,0.297,0.197,0.633,0.485,0.513
	c0.632-0.264,1.442-1.897,1.119-2.503c-0.274-0.515-2.049-0.285-2.173-0.855c-0.176-0.808,2.173-1.503,2.371-2.306
	c0.204-0.824-1.62-2.595-1.054-3.227c0.576-0.646,2.363,1.29,3.228,1.252c0.781-0.037,1.612-2.231,2.371-2.043
	c0.7,0.173,0.223,2.18,0.528,2.833c0.225,0.481,1.546,0.749,1.713,1.251c0.234,0.714-1.429,1.958-1.319,2.701
	c0.08,0.538,1.714,0.712,1.779,1.251c0.076,0.632-1.18,1.249-1.5,1.798c-0.352,0.601,0.565,1.533,0.547,2.229
	c-0.011,0.474-1.219,0.995-1.136,1.462c0.086,0.493,1.326,0.739,1.528,1.197c0.201,2.813-1.903,9.853-1.547,12.615
	c0.135,0.288,0.903,0.606,1.186,0.461c0.303-0.155,0.413-1.572,0.528-1.251c2.394,6.714,9.66,19.434,13.173,25.756
	c1.539,2.767,4.911,8.157,6.917,10.604c2.281,2.784,10.276,10.078,10.276,10.078s1.68,2.573,1.252,3.36
	c-0.436,0.801-2.667,0.989-3.558,0.791c-1.561-0.349-4.577-1.667-5.796-2.702c-1.842-1.562-4.673-5.554-5.995-7.574
	c-3.15-4.812-9.234-14.585-12.12-19.563c-3.179-5.483-8.561-16.265-12.252-22.195c-0.403-0.053-1.114,0.776-1.119,1.183
	c3.346,6.508,8.849,16.306,11.922,21.672c2.983,5.206,9.22,15.47,12.515,20.485c1.348,2.053,4.297,6.095,6.259,7.574
	c1.467,1.109,5.096,2.238,6.916,2.504c1.265,0.185,4.343-0.244,4.929-1.383C70.516,96.452,68.268,93.491,67.459,92.203z"/>
<path opacity="0.5" fill="#FFFFFF" stroke="#FFFFFF" stroke-miterlimit="10" d="M30.623,43.663
	c-0.313-0.113-0.992,0.493-1.056,0.821c0.508,1.056,1.327,2.327,1.701,2.933c0.226,0.06,0.782-0.087,0.881-0.297
	C32.154,46.28,31.327,44.699,30.623,43.663z"/>
<path opacity="0.5" fill="#FFFFFF" stroke="#FFFFFF" stroke-width="0.481" stroke-miterlimit="10" d="M30.477,28.116
	c-0.282,1.877,0,4.635-0.527,6.043c0.134,0.313,0.861,0.844,1.173,0.704c0.293-1.204,0.293-4.694,0.645-6.512
	C31.6,28.07,30.737,27.917,30.477,28.116z"/>
<path opacity="0.5" fill="#FFFFFF" stroke="#FFFFFF" stroke-width="0.394" stroke-miterlimit="10" d="M33.587,28.737
	c-0.129-0.159-0.672-0.145-0.817,0c0.208,2.066,0.315,6.163,0,7.974c0.106,0.192,0.627,0.45,0.817,0.336
	C33.843,35.957,34.166,30.942,33.587,28.737z"/>
<path opacity="0.5" fill="#FFFFFF" stroke="#FFFFFF" stroke-width="0.481" stroke-miterlimit="10" d="M26.577,31.228
	c-0.088-0.052-0.31-0.022-0.411,0c-0.253,0.06-0.776,0.388-0.82,0.645c1.407,3.129,5.984,9.465,7.274,11.561
	c0.342,0.055,0.912-0.677,0.939-1.023C32.424,39.969,28.786,35.158,26.577,31.228z"/>
<path opacity="0.5" fill="#FFFFFF" stroke="#FFFFFF" stroke-width="0.481" stroke-miterlimit="10" d="M24.815,36.29
	c-0.26,0.05-0.491,0.726-0.411,0.978c1.056,1.066,1.964,3.156,3.051,3.109c0.255-0.01,0.645-0.786,0.645-0.786
	S25.941,36.824,24.815,36.29z"/>
<path opacity="0.5" fill="#FFFFFF" stroke="#FFFFFF" stroke-miterlimit="10" d="M26.626,43.665
	c-0.327,0.097-0.591,1.033-0.931,0.998c-0.549-0.058-0.377-1.723-0.821-2.054c-0.356-0.266-1.376,0.498-1.76,0.271
	c-0.274-0.161-0.026-0.978-0.175-1.258c-0.221-0.411-1.186-0.794-1.643-0.889c-0.548-0.111-1.979,0.323-2.229-0.176
	c-0.328-0.65,1.718-1.681,1.642-2.405c-0.063-0.604-1.981-0.61-2.111-1.203c-0.147-0.665,1.855-1.138,2.053-1.79
	c0.288-0.949-2.343-2.557-1.937-3.46c0.242-0.535,1.832,0.282,2.346,0c0.612-0.334,0.264-2.319,0.881-2.64
	c0.192-0.101,0.738,0.195,0.762,0.41c0.021,0.179-0.467,0.417-0.411,0.587c0.095,0.279,0.94,0.296,1.174,0.118
	c0.23-0.174,0.584-0.791,0.469-1.056c-0.284-0.656-1.878-1.66-2.522-1.35c-0.621,0.3-0.782,2.014-1.35,2.406
	c-0.561,0.388-2.32-0.158-2.698,0.411c-0.628,0.941,1.841,3.072,1.701,4.194c-0.101,0.8-2.354,1.284-2.464,2.083
	c-0.101,0.73,1.911,1.346,2.111,2.055c0.208,0.733-1.733,2.018-1.407,2.707c0.316,0.67,2.231-0.113,2.963,0
	c0.434,0.068,1.307,0.533,1.495,0.93c0.228,0.477-0.382,1.748,0,2.112c0.399,0.38,1.632-0.528,2.171-0.411
	c0.609,0.133,1.031,1.752,1.643,1.877c0.729,0.149,2.542-1.028,2.404-1.76C27.913,43.993,26.993,43.557,26.626,43.665z"/>
<path opacity="0.5" fill="#FFFFFF" stroke="#FFFFFF" stroke-miterlimit="10" d="M34.188,49.95c-0.242-0.046-0.672,0.449-0.697,0.693
	c6.05,15.357,27.666,44.041,29.75,44.584c0.39,0.063,1.121-0.664,1.172-1.055C55.262,87.249,39.423,60.852,34.188,49.95z"/>
</svg>
