<?xml version="1.0" encoding="utf-8"?>
<!-- Generator: Adobe Illustrator 16.0.4, SVG Export Plug-In . SVG Version: 6.00 Build 0)  -->
<!DOCTYPE svg PUBLIC "-//W3C//DTD SVG 1.1//EN" "http://www.w3.org/Graphics/SVG/1.1/DTD/svg11.dtd">
<svg version="1.1" xmlns="http://www.w3.org/2000/svg" xmlns:xlink="http://www.w3.org/1999/xlink" x="0px" y="0px" width="580px"
	 height="150.16px" viewBox="0 0 580 150.16" enable-background="new 0 0 580 150.16" xml:space="preserve">
<g id="Layer_1">
	<g>
		<path fill="#C65727" d="M42.431,107.039H30.792l-8.28-37.798l-4.8,13.08v24.719H6.553V27.002h11.159v30.119l10.92-30.119h11.399
			l-10.08,26.999L42.431,107.039z"/>
		<path fill="#C65727" d="M61.63,107.039H50.471V27.002H61.63V107.039z"/>
		<path fill="#C65727" d="M81.388,37.442H70.948V27.002h32.519v10.439h-10.92v69.597H81.388V37.442z"/>
		<path fill="#C65727" d="M140.104,78.6c0.12,4.32,0.24,6.24,0.24,8.4c0,14.279-5.279,21.239-16.199,21.239
			c-10.439,0-15.72-6.479-15.72-19.199V45.001c0-12.719,5.28-19.199,15.72-19.199c10.8,0,16.199,6.96,16.199,20.879
			c0,1.92,0,3.24-0.24,6.359h-11.159c0.24-2.52,0.24-3.6,0.24-5.52c0-8.88-1.08-11.279-5.04-11.279c-3.6,0-4.56,1.8-4.56,8.759
			V89.04c0,6.96,0.96,8.759,4.56,8.759c3.96,0,5.04-2.399,5.04-10.919c0-2.4-0.12-4.56-0.24-8.28H140.104z"/>
		<path fill="#C65727" d="M160.505,70.32v36.719h-11.159V27.002h11.159v32.878h9.12V27.002h11.159v80.037h-11.159V70.32H160.505z"/>
		<path fill="#C65727" d="M217.384,27.002v10.439h-15.839v22.439h11.039V70.32h-11.039V96.6h16.799v10.439h-27.959V27.002H217.384z"
			/>
		<path fill="#C65727" d="M261.183,107.039h-11.16l-13.199-41.998v41.998h-11.159V27.002h9.6l14.759,47.158V27.002h11.16V107.039z"
			/>
		<path fill="#C65727" d="M327.061,107.039H315.9l-13.199-41.998v41.998h-11.159V27.002h9.6L315.9,74.16V27.002h11.16V107.039z"/>
		<path fill="#C65727" d="M363.899,37.442H353.46V27.002h32.519v10.439H375.06v69.597h-11.16V37.442z"/>
		<path fill="#C65727" d="M404.456,70.32v36.719h-11.159V27.002h11.159v32.878h9.12V27.002h11.159v80.037h-11.159V70.32H404.456z"/>
		<path fill="#C65727" d="M445.614,107.039h-11.159V27.002h11.159V107.039z"/>
		<path fill="#C65727" d="M490.732,107.039h-11.159l-13.2-41.998v41.998h-11.159V27.002h9.6l14.76,47.158V27.002h11.159V107.039z"/>
		<path fill="#C65727" d="M531.892,107.039h-6l-1.68-5.52c-3.12,4.56-6.479,6.72-10.319,6.72c-4.68,0-9.12-2.761-11.399-7.08
			c-1.8-3.36-2.28-6.6-2.28-13.799V45.001c0-12.719,5.28-19.199,15.84-19.199c10.679,0,16.079,6.96,16.079,20.879
			c0,1.68,0,3.24-0.24,6.359h-11.159c0.239-2.64,0.239-3.72,0.239-5.52c0-8.88-1.079-11.279-5.039-11.279
			c-3.6,0-4.561,1.8-4.561,8.759V87.36c0,5.88,0.12,6.72,0.721,8.04c0.84,1.681,2.16,2.521,3.84,2.521c1.8,0,3.359-1.08,4.08-2.881
			c0.6-1.319,0.72-2.52,0.72-7.679V75.84h-4.92v-9.479h16.079V107.039z"/>
		<path fill="#C65727" d="M551.449,83.4v3.48c0,8.28,1.44,10.919,5.76,10.919c3.36,0,5.04-2.76,5.04-7.919
			c0-5.28-1.32-8.4-6.84-15.72l-5.52-8.159c-6.84-10.32-9.12-15.84-9.12-22.919c0-10.56,6.36-17.279,16.439-17.279
			c7.56,0,13.08,4.32,14.64,11.64c0.6,3,0.6,3.36,0.6,9.959l-10.919,1.08c0-4.08-0.12-5.52-0.36-7.2
			c-0.359-3.24-2.16-5.04-4.68-5.04c-3,0-4.68,2.64-4.68,7.439c0,4.92,0.479,6,7.92,17.159l5.64,8.16
			c5.159,7.56,8.039,15.719,8.039,22.559c0,10.68-5.88,16.68-16.319,16.68c-5.999,0-10.199-1.92-13.319-6.12
			c-2.64-3.6-3.479-6.959-3.479-13.919c0-1.68,0-2.4,0.12-4.32L551.449,83.4z"/>
	</g>
	<line fill="none" stroke="#C89A2C" stroke-width="2" stroke-miterlimit="10" x1="6.553" y1="135.521" x2="145.506" y2="135.521"/>
	<line fill="none" stroke="#C89A2C" stroke-width="2" stroke-miterlimit="10" x1="6.553" y1="7" x2="573.408" y2="7"/>
	
		<line fill="none" stroke="#C89A2C" stroke-width="2" stroke-miterlimit="10" x1="434.455" y1="135.521" x2="573.408" y2="135.521"/>
</g>
<g id="Layer_2">
	<g>
		<path fill="#3E441B" d="M164.584,124.783c-0.084,1.177-0.111,2.269-0.111,3.276c-0.477,0.14-1.092,0.224-1.597,0.224
			c0-1.512-0.615-2.66-2.184-2.66c-1.512,0-2.1,1.429-2.1,3.921v1.987h2.855c0,0.364-0.056,0.896-0.28,1.26
			c-0.979,0-1.848,0.113-2.575,0.309v6.859c0,2.437,0.728,2.912,2.491,2.996c0.112,0.309,0.141,0.701,0.141,1.205
			c-0.868-0.057-2.212-0.084-3.528-0.084c-1.315,0-2.968,0.027-3.696,0.084c0-0.504,0.028-0.896,0.141-1.205
			c1.483-0.084,1.932-0.56,1.932-2.436v-7.504c-0.812-0.168-1.68-0.225-2.24-0.225c0-0.475,0.112-0.896,0.393-1.26h1.848v-1.119
			c0-4.2,2.94-6.328,5.853-6.328C163.381,124.084,163.969,124.42,164.584,124.783z"/>
		<path fill="#3E441B" d="M176.176,137.664c0,3.836-2.548,6.664-6.328,6.664c-3.836,0-6.327-2.633-6.327-6.664
			c0-3.809,2.604-6.664,6.327-6.664C173.824,131,176.176,133.688,176.176,137.664z M166.348,137.076
			c0,3.779,1.456,5.908,3.725,5.908c2.24,0,3.304-2.045,3.304-4.984c0-3.473-1.736-5.656-3.808-5.656
			C167.412,132.344,166.348,134.275,166.348,137.076z"/>
		<path fill="#3E441B" d="M188.468,131.924c-0.14,0.924-0.195,2.324-0.195,3.304c-0.336,0.112-0.98,0.252-1.597,0.252
			c-0.084-1.792-0.644-2.184-1.372-2.184c-0.979,0-2.38,1.792-2.38,3.976v2.688c0,2.437,0.729,2.912,2.492,2.996
			c0.112,0.309,0.14,0.701,0.14,1.205c-0.867-0.057-2.212-0.084-3.527-0.084c-1.316,0-2.968,0.027-3.696,0.084
			c0-0.504,0.028-0.896,0.14-1.205c1.484-0.084,1.933-0.56,1.933-2.436v-5.544c0-1.315-0.252-1.932-2.101-1.987
			c0-0.42,0.057-0.729,0.252-1.037c1.148-0.084,2.885-0.504,3.753-0.951c0.336,0.111,0.615,0.42,0.615,1.232
			c0,1.063-0.195,1.903-0.363,2.743c0.224-0.644,0.363-1.12,0.588-1.456c0.812-1.287,1.932-2.268,3.388-2.268
			C187.292,131.252,187.88,131.476,188.468,131.924z"/>
		<path fill="#3E441B" d="M197.204,127.836c0.729-0.196,1.54-0.645,2.1-1.12c0.364,0.168,0.448,0.28,0.448,1.456v3.359h3.612
			c0,0.364-0.084,0.812-0.252,1.232c-1.344,0.057-2.437,0.168-3.36,0.364v7c0,1.876,0.588,2.688,1.596,2.688
			c0.784,0,1.316-0.225,1.849-0.673c0.224,0.252,0.392,0.616,0.42,0.925c-0.616,0.699-1.988,1.26-3.164,1.26
			c-2.212,0-3.248-1.064-3.248-3.612v-7.588c-0.56-0.196-1.092-0.308-2.016-0.364c0-0.477,0.056-0.784,0.252-1.232h1.764V127.836z"
			/>
		<path fill="#3E441B" d="M220.136,144.16c-0.812-0.057-1.903-0.084-3.052-0.084c-1.147,0-2.464,0.056-3.332,0.084
			c0-0.504,0.028-0.896,0.141-1.205c1.344,0,1.932-0.56,1.932-2.436v-4.256c0-2.632-1.092-3.416-2.604-3.416
			c-1.456,0-3.164,1.26-3.164,4.676v2.996c0,1.876,0.476,2.436,1.932,2.436c0.112,0.336,0.14,0.701,0.14,1.205
			c-0.783-0.028-2.184-0.084-3.332-0.084c-1.147,0-2.52,0.027-3.332,0.084c0-0.504,0.028-0.896,0.141-1.205
			c1.456,0,1.932-0.56,1.932-2.436v-12.544c0-1.315-0.196-1.987-2.1-1.987c0-0.42,0.056-0.729,0.252-1.037
			c0.84,0,3.08-0.476,3.752-0.951c0.336,0.111,0.616,0.42,0.616,1.119v7.113c0,0.447-0.028,1.008-0.196,1.651
			c0.112-0.196,0.196-0.42,0.42-0.728c0.616-0.869,2.072-2.017,4.06-2.017c2.128,0,4.004,1.147,4.004,4.563v4.816
			c0,1.932,0.532,2.436,1.652,2.436C220.108,143.291,220.136,143.656,220.136,144.16z"/>
		<path fill="#3E441B" d="M233.156,142.004c-1.288,1.68-2.94,2.324-4.984,2.324c-3.976,0-5.936-2.996-5.936-6.664
			c0-3.584,2.212-6.664,5.796-6.664c3.64,0,5.012,2.604,5.235,5.796c-0.084,0.392-0.224,0.7-0.42,0.952c-1.176,0-4.928,0-7.84,0.14
			c0.168,2.492,1.12,4.872,4.061,4.872c1.231,0,2.491-0.561,3.416-1.624C232.792,141.304,233.1,141.695,233.156,142.004z
			 M224.979,136.488h5.376c0-2.465-0.951-4.145-2.575-4.145C226.492,132.344,225.147,133.24,224.979,136.488z"/>
		<path fill="#3E441B" d="M241.108,137.72c0-3.36,2.044-6.72,5.823-6.72c1.708,0,3.164,0.42,4.229,1.26
			c-0.168,1.092-0.196,2.128-0.196,3.191c-0.308,0.168-0.896,0.225-1.288,0.225c-0.224-2.156-1.344-3.359-2.968-3.359
			c-1.848,0-2.996,1.791-2.996,4.983c0,2.8,1.4,5.432,4.004,5.432c1.204,0,2.296-0.56,3.108-1.624
			c0.279,0.141,0.588,0.448,0.7,0.784c-1.009,1.597-2.465,2.437-4.593,2.437C244.076,144.328,241.108,142.115,241.108,137.72z"/>
		<path fill="#3E441B" d="M267.483,144.16c-0.812-0.057-1.903-0.084-3.052-0.084c-1.147,0-2.464,0.056-3.332,0.084
			c0-0.504,0.028-0.896,0.141-1.205c1.344,0,1.932-0.56,1.932-2.436v-4.256c0-2.632-1.092-3.416-2.604-3.416
			c-1.456,0-3.164,1.26-3.164,4.676v2.996c0,1.876,0.476,2.436,1.932,2.436c0.112,0.336,0.14,0.701,0.14,1.205
			c-0.783-0.028-2.184-0.084-3.332-0.084c-1.147,0-2.52,0.027-3.332,0.084c0-0.504,0.028-0.896,0.141-1.205
			c1.456,0,1.932-0.56,1.932-2.436v-12.544c0-1.315-0.196-1.987-2.1-1.987c0-0.42,0.056-0.729,0.252-1.037
			c0.84,0,3.08-0.476,3.752-0.951c0.336,0.111,0.616,0.42,0.616,1.119v7.113c0,0.447-0.028,1.008-0.196,1.651
			c0.112-0.196,0.196-0.42,0.42-0.728c0.616-0.869,2.072-2.017,4.06-2.017c2.128,0,4.004,1.147,4.004,4.563v4.816
			c0,1.932,0.532,2.436,1.652,2.436C267.456,143.291,267.483,143.656,267.483,144.16z"/>
		<path fill="#3E441B" d="M280.504,142.004c-1.288,1.68-2.94,2.324-4.984,2.324c-3.976,0-5.936-2.996-5.936-6.664
			c0-3.584,2.212-6.664,5.796-6.664c3.64,0,5.012,2.604,5.235,5.796c-0.084,0.392-0.224,0.7-0.42,0.952c-1.176,0-4.928,0-7.84,0.14
			c0.168,2.492,1.12,4.872,4.061,4.872c1.231,0,2.491-0.561,3.416-1.624C280.14,141.304,280.447,141.695,280.504,142.004z
			 M272.327,136.488h5.376c0-2.465-0.951-4.145-2.575-4.145C273.84,132.344,272.495,133.24,272.327,136.488z"/>
		<path fill="#3E441B" d="M293.495,124.783c-0.084,1.177-0.111,2.269-0.111,3.276c-0.477,0.14-1.092,0.224-1.597,0.224
			c0-1.512-0.615-2.66-2.184-2.66c-1.512,0-2.1,1.429-2.1,3.921v1.987h2.855c0,0.364-0.056,0.896-0.28,1.26
			c-0.979,0-1.848,0.113-2.575,0.309v6.859c0,2.437,0.728,2.912,2.491,2.996c0.112,0.309,0.141,0.701,0.141,1.205
			c-0.868-0.057-2.212-0.084-3.528-0.084c-1.315,0-2.968,0.027-3.696,0.084c0-0.504,0.028-0.896,0.141-1.205
			c1.483-0.084,1.932-0.56,1.932-2.436v-7.504c-0.812-0.168-1.68-0.225-2.24-0.225c0-0.475,0.112-0.896,0.393-1.26h1.848v-1.119
			c0-4.2,2.94-6.328,5.853-6.328C292.292,124.084,292.88,124.42,293.495,124.783z"/>
		<path fill="#3E441B" d="M305.339,140.52c0,1.876,0.448,2.436,1.652,2.436c0.111,0.393,0.14,0.953,0.14,1.205
			c-0.979-0.057-2.1-0.084-3.164-0.084c-1.063,0-2.296,0.027-3.22,0.084c0-0.364,0.028-0.84,0.14-1.205
			c1.484,0,1.933-0.56,1.933-2.436v-5.544c0-1.315-0.196-1.987-2.101-1.987c0-0.42,0.057-0.729,0.252-1.037
			c0.841,0,3.08-0.476,3.752-0.951c0.336,0.111,0.616,0.42,0.616,1.119V140.52z M305.535,126.212c0,0.868-0.756,1.624-1.68,1.624
			c-0.952,0-1.652-0.729-1.652-1.624c0-1.009,0.784-1.708,1.652-1.708C304.863,124.504,305.535,125.203,305.535,126.212z"/>
		<path fill="#3E441B" d="M323.847,144.16c-0.812-0.057-1.904-0.084-3.052-0.084c-1.148,0-2.464,0.056-3.332,0.084
			c0-0.504,0.027-0.896,0.14-1.205c1.344,0,1.932-0.56,1.932-2.436v-4.256c0-2.632-1.092-3.416-2.604-3.416
			c-1.456,0-3.164,1.26-3.164,4.676v2.996c0,1.876,0.476,2.436,1.932,2.436c0.112,0.336,0.141,0.701,0.141,1.205
			c-0.784-0.028-2.185-0.084-3.332-0.084c-1.148,0-2.521,0.027-3.332,0.084c0-0.504,0.028-0.896,0.14-1.205
			c1.456,0,1.933-0.56,1.933-2.436v-5.544c0-1.315-0.252-1.932-2.101-1.987c0-0.42,0.057-0.729,0.252-1.037
			c1.148-0.084,2.884-0.504,3.752-0.951c0.336,0.111,0.616,0.42,0.616,1.232c0,0.447-0.028,1.008-0.196,1.651
			c0.112-0.196,0.196-0.42,0.42-0.728c0.616-0.869,2.072-2.017,4.061-2.017c2.128,0,4.004,1.147,4.004,4.563v4.816
			c0,1.932,0.532,2.436,1.652,2.436C323.818,143.291,323.847,143.656,323.847,144.16z"/>
		<path fill="#3E441B" d="M341.542,140.268c0,1.316,0.196,1.904,1.736,1.904c0,0.392-0.028,0.896-0.168,1.287
			c-0.924,0.057-2.324,0.393-3.192,0.869c-0.392-0.168-0.7-0.364-0.7-1.541c0-0.252,0.028-0.531,0.057-0.783
			c-0.196,0.476-0.504,0.924-0.952,1.316c-0.645,0.56-1.568,0.951-2.912,0.951c-2.269,0-3.556-1.119-3.556-2.968
			c0-3.64,4.871-4.396,7.168-4.731c0-2.297-0.112-2.885-0.589-3.473c-0.447-0.561-1.035-0.84-1.735-0.84
			c-1.876,0-2.408,2.072-2.464,3.248c-0.42,0-1.177-0.057-1.456-0.196c0.084-0.924,0.027-2.212-0.141-3.052
			c1.513-0.784,3.332-1.26,4.761-1.26c1.372,0,2.352,0.447,2.968,1.064c0.952,0.951,1.176,2.352,1.176,4.844V140.268z
			 M339.022,137.72c-1.904,0.252-4.452,0.588-4.452,3.024c0,1.371,0.784,1.987,1.651,1.987c1.204,0,2.801-1.12,2.801-3.948V137.72z"
			/>
		<path fill="#3E441B" d="M347.478,127.976c0-1.315-0.196-1.987-2.1-1.987c0-0.42,0.056-0.729,0.252-1.037
			c0.84,0,3.079-0.476,3.752-0.951c0.336,0.111,0.615,0.42,0.615,1.119v15.4c0,1.876,0.448,2.436,1.652,2.436
			c0.112,0.393,0.14,0.953,0.14,1.205c-0.979-0.057-2.1-0.084-3.164-0.084c-1.063,0-2.296,0.027-3.22,0.084
			c0-0.364,0.028-0.84,0.141-1.205c1.483,0,1.932-0.56,1.932-2.436V127.976z"/>
		<path fill="#3E441B" d="M355.85,127.976c0-1.315-0.196-1.987-2.1-1.987c0-0.42,0.056-0.729,0.252-1.037
			c0.84,0,3.079-0.476,3.752-0.951c0.336,0.111,0.615,0.42,0.615,1.119v15.4c0,1.876,0.448,2.436,1.652,2.436
			c0.112,0.393,0.14,0.953,0.14,1.205c-0.979-0.057-2.1-0.084-3.164-0.084c-1.063,0-2.296,0.027-3.22,0.084
			c0-0.364,0.028-0.84,0.141-1.205c1.483,0,1.932-0.56,1.932-2.436V127.976z"/>
		<path fill="#3E441B" d="M380.518,137.664c0,3.836-2.549,6.664-6.328,6.664c-3.836,0-6.328-2.633-6.328-6.664
			c0-3.809,2.604-6.664,6.328-6.664C378.165,131,380.518,133.688,380.518,137.664z M370.689,137.076
			c0,3.779,1.456,5.908,3.724,5.908c2.24,0,3.304-2.045,3.304-4.984c0-3.473-1.735-5.656-3.808-5.656
			C371.753,132.344,370.689,134.275,370.689,137.076z"/>
		<path fill="#3E441B" d="M393.396,124.783c-0.084,1.177-0.112,2.269-0.112,3.276c-0.476,0.14-1.092,0.224-1.596,0.224
			c0-1.512-0.616-2.66-2.184-2.66c-1.512,0-2.101,1.429-2.101,3.921v1.987h2.856c0,0.364-0.056,0.896-0.28,1.26
			c-0.979,0-1.848,0.113-2.576,0.309v6.859c0,2.437,0.729,2.912,2.492,2.996c0.112,0.309,0.141,0.701,0.141,1.205
			c-0.868-0.057-2.213-0.084-3.528-0.084c-1.316,0-2.968,0.027-3.696,0.084c0-0.504,0.028-0.896,0.141-1.205
			c1.483-0.084,1.932-0.56,1.932-2.436v-7.504c-0.812-0.168-1.68-0.225-2.24-0.225c0-0.475,0.112-0.896,0.393-1.26h1.848v-1.119
			c0-4.2,2.939-6.328,5.852-6.328C392.192,124.084,392.78,124.42,393.396,124.783z"/>
		<path fill="#3E441B" d="M412.548,140.268c0,1.316,0.196,1.904,1.736,1.904c0,0.392-0.028,0.896-0.168,1.287
			c-0.924,0.057-2.324,0.393-3.192,0.869c-0.392-0.168-0.699-0.336-0.699-1.625c0-0.252,0-0.615,0.084-1.176
			c-0.196,0.448-0.504,0.84-0.896,1.232c-0.979,0.98-1.988,1.428-3.5,1.428c-2.52,0-4.004-1.26-4.004-4.984v-4.228
			c0-1.315-0.14-1.932-1.848-1.987c0-0.42,0.027-0.701,0.195-1.037c1.148-0.084,2.688-0.504,3.557-0.951
			c0.336,0.111,0.616,0.42,0.616,1.232v6.355c0,2.52,0.588,3.892,2.323,3.892c1.849,0,3.276-1.54,3.276-4.788v-2.855
			c0-1.316-0.252-1.932-2.1-1.988c0-0.42,0-0.699,0.195-1.036c1.456-0.084,2.968-0.42,3.809-0.812
			c0.336,0.111,0.615,0.42,0.615,1.232V140.268z"/>
		<path fill="#3E441B" d="M423.859,135.228c-0.111-1.54-1.315-3.079-3.136-3.079c-1.148,0-1.904,0.615-1.904,1.539
			c0,0.952,0.336,1.428,3.332,2.604c3.024,1.148,3.977,2.101,3.977,4.089c0,2.38-2.212,3.948-5.124,3.948
			c-2.24,0-3.36-0.364-4.62-1.037c0.112-0.867,0.112-2.575,0.028-3.471c0.308-0.225,0.896-0.309,1.455-0.309
			c0.28,2.352,1.484,3.5,3.416,3.5c1.513,0,2.408-0.756,2.408-1.792c0-0.979-0.532-1.456-3.023-2.464
			c-3.024-1.204-4.145-1.988-4.145-4.256c0-2.381,2.772-3.5,4.648-3.5c1.68,0,2.884,0.336,4.032,0.979
			c-0.057,0.896-0.084,1.933,0.056,2.912C424.896,135.115,424.392,135.228,423.859,135.228z"/>
	</g>
</g>
</svg>
