<?xml version="1.0" encoding="utf-8"?>
<!-- Generator: Adobe Illustrator 16.0.4, SVG Export Plug-In . SVG Version: 6.00 Build 0)  -->
<!DOCTYPE svg PUBLIC "-//W3C//DTD SVG 1.1//EN" "http://www.w3.org/Graphics/SVG/1.1/DTD/svg11.dtd">
<svg version="1.1" id="Layer_1" xmlns="http://www.w3.org/2000/svg" xmlns:xlink="http://www.w3.org/1999/xlink" x="0px" y="0px"
	 width="100px" height="100px" viewBox="0 0 100 100" enable-background="new 0 0 100 100" xml:space="preserve">
<path opacity="0.5" fill="#FFFFFF" d="M86.739,47.105c-0.75-3.813-4.479-11.017-7.23-13.763
	c-5.045-5.034-21.569-14.428-21.269-21.548c0.12-2.864,8.304-4.787,8.48-7.646c0.067-1.079-1.984-3.166-3.06-3.059
	c-2.278,0.227-4.781,7.173-6.811,6.117c-1.114-0.578-0.836-2.642-0.28-5.004c0.418-1.115-2.919-1.46-3.335-0.416
	c-1.044,2.084,1.808,6.985-1.669,8.896c-1.876,1.251-5.034,3.89-7.091,5.283c-2.547,1.404-7.683,4.15-10.147,5.701
	c-3.191,2.006-9.746,5.914-12.372,8.619c-2.983,3.071-8.559,10.028-9.593,14.181c-1.034,4.153-1.104,13.283,0.833,17.099
	c2.136,4.209,9.325,10.983,13.487,13.207c3.892,2.919,12.649,1.319,12.094,3.896c-0.174,2.331-5.444,1.304-7.716,1.875
	c-2.143,0.538-9.637,2.382-8.688,4.377c0.736,1.55,5.701-2.14,6.812-0.834c1.689,1.986-5.236,8.818-2.92,10.01
	c2.951,1.519,6.186-9.774,9.038-11.47c1.409-0.836,5.019,0.108,5.698,1.6c0.93,2.036-3.457,5.868-3.892,8.062
	c-0.387,1.954,0.243,7.841,2.223,7.648c1.779-0.174-0.402-5.141,0-6.885c0.45-1.935,4.45-6.462,4.38-8.34
	c-0.099-2.673-3.195-4.036-2.85-5.421c0.188-0.75,3.68-0.683,4.45-0.623c1.875,0.138,2.33,1.631,2.5,2.499
	c0.285,1.433-1.142,4.247-1.25,5.702c-0.091,1.234,0.673,3.661,0.973,4.865c0.504,2.029-0.26,9.018,1.667,8.202
	c1.808-0.767,1.303-4.58,0.836-6.673c-0.194-0.867-0.905-3.843-0.975-4.727c-0.076-0.977,0.979-4.858,1.946-5.005
	c1.601-0.251,7.23,2.917,7.646,5.072c0.353,1.812-2.569,7.23-0.834,7.856c1.916,0.691,3.439-5.301,3.823-7.3
	c0.348-1.808-2.246-2.974-1.46-3.823c0.942-1.015,5.445,1.319,6.742,0.834c0.987-0.369,1.482-1.521,0.767-2.294
	c-1.729-1.857-7.335-0.691-9.872-0.764c-1.407-0.041-4.248-0.75-5.422-1.532c-0.635-0.42-2.335-1.502-2.085-2.223
	c1.7-4.881,15.271-2.906,20.159-4.587c3.925-1.352,10.99-6.754,12.929-10.426C85.454,60.463,87.585,51.412,86.739,47.105z
	 M23.9,68.656c-2.14-0.85-5.279-7.046-6.393-9.734c-1.231-2.967-2.004-9.666-1.251-12.789c1.041-4.334,7.249-11.335,10.425-14.459
	c5.058-4.972,20.784-14.458,24.329-14.597c-3.719,6.451-10.78,10.639-14.736,13.761c-2.837,2.243-8.637,6.815-10.564,9.871
	c-1.589,2.523-3.612,8.297-3.894,11.263c-0.254,2.678,0.548,8.073,1.113,10.706C23.246,64.157,24.222,66.586,23.9,68.656z
	 M30.993,71.155c-1.845-0.694-4.832-10.218-5.424-13.9c-0.431-2.691,0.449-8.337,1.668-10.776
	c4.003-7.989,23.084-22.242,25.865-23.354c0.277,7.438-8.139,16.3-11.962,21.478c-1.976,2.675-6.164,7.94-7.508,10.984
	c-1.1,2.49-2.385,7.854-2.639,10.563C30.874,67.397,31.481,70.461,30.993,71.155z M46.561,75.051
	c-2.595-2.736,3.799-9.915,5.004-13.489c0.769-2.271,2.016-6.824,2.504-9.174c0.318-1.531,0.445-6.177-0.391-7.497
	c-0.6-0.949-1.277,0.025-1.974,1.103c-1.484,2.852-1.928,6.322-2.256,8.364c-0.409,2.545-1.703,7-2.888,9.291
	c-0.683,1.32-2.365,3.579-2.781,5.005c-0.456,1.57-0.408,5.548-1.807,6.397c-1.396,0.845-4.977-1.352-5.977-2.644
	c-1.432-1.847-1.166-7.027-0.696-9.314c0.664-3.23,4.577-8.789,6.396-11.539c1.815-2.744,7.368-9.452,7.854-10.565
	c0.487-1.113,5.491-12.304,6.604-14.458c3.336,5.005,6.121,16.833,6.673,22.73c0.176,1.885,0.569,5.771,0,7.579
	c-0.726,2.296-4.02,6.008-5.283,8.06c-1.127,1.83-2.74,5.908-4.171,7.509C52.155,73.771,47.82,76.374,46.561,75.051z M61.577,72.407
	c-0.91,0.436-3.64,0.928-4.035,0c1.062-4.899,9.571-13.067,10.846-18.212c0.614-2.477-0.391-7.7-1.111-10.147
	c-1.415-4.801-7.021-14.042-6.95-18.769c4.586,1.252,11.474,15.412,12.65,21.548c0.468,2.458,0.803,7.639,0,10.01
	c-0.82,2.42-4.101,6.489-5.7,8.481C65.851,67.088,63.627,71.424,61.577,72.407z M82.288,54.335
	c-0.271,2.353-2.422,6.711-3.612,8.758c-1.521,2.612-7.369,9.413-9.592,7.368c-3.446-3.167,8.235-9.663,8.758-16.541
	c0.483-2.085-0.034-6.293-0.66-8.552c-0.939-5.003-6.801-12.211-9.905-17.309c4.311,0.139,10.877,10.078,13.448,14.39
	C82.369,45.438,82.641,51.31,82.288,54.335z"/>
</svg>
