<?xml version="1.0" encoding="utf-8"?>
<!-- Generator: Adobe Illustrator 16.0.4, SVG Export Plug-In . SVG Version: 6.00 Build 0)  -->
<!DOCTYPE svg PUBLIC "-//W3C//DTD SVG 1.1//EN" "http://www.w3.org/Graphics/SVG/1.1/DTD/svg11.dtd">
<svg version="1.1" id="Layer_1" xmlns="http://www.w3.org/2000/svg" xmlns:xlink="http://www.w3.org/1999/xlink" x="0px" y="0px"
	 width="100px" height="100px" viewBox="0 0 100 100" enable-background="new 0 0 100 100" xml:space="preserve">
<path opacity="0.5" fill="#191819" enable-background="new    " d="M84.698,30.419c-0.5-3.877-1.677-11.789-3.532-15.23
	c-1.45-2.697-5.637-7.396-8.143-9.158c-2.125-1.496-6.768-4.144-9.326-4.596c-2.178-0.384-6.77-0.285-8.83,0.516
	c-3.521,1.37-10.181,5.577-12.413,8.627c-2.68,3.669-5.027,12.738-7.433,16.596c-3.055,4.898-11.527,12.978-14.774,17.753
	c-2.526,3.713-7.327,11.681-7.902,16.132c-0.684,5.267,0.48,16.432,3.188,21c2.411,4.06,9.616,10.834,13.933,12.75
	c3.485,1.551,11.205,3.404,14.987,2.89c5.064-0.694,14.951-4.522,18.923-7.736c4.56-3.687,12.185-12.956,14.771-18.219
	c2.338-4.75,5.606-14.97,6.301-20.216C85.141,46.296,85.368,35.654,84.698,30.419z M77.262,63.104
	c-1.291,3.733-5.068,10.768-7.354,13.989c-2.482,3.484-8.849,9.451-12.487,11.697c-3.281,2.022-10.929,4.017-14.761,4.455
	c-3.038,0.349-9.279-0.608-12.098-1.791c-2.688-1.128-7.043-5.329-8.785-7.666c-1.778-2.386-3.723-8.151-4.436-11.038
	c-0.667-2.714-0.854-8.384-0.528-11.158c0.341-2.922,2.46-8.541,3.932-11.087c1.833-3.168,7.142-8.336,9.514-11.121
	c1.931-2.266,5.791-6.83,7.386-9.343c1.354-2.133,4.502-9.046,4.502-9.046s2.697-8.445,4.681-10.535
	c1.648-1.733,6.187-3.853,8.532-4.328c2.072-0.42,6.418-0.885,8.461-0.329c2.279,0.625,6.566,2.991,8.205,4.695
	c1.92,1.994,5.033,6.736,5.914,9.357c1.064,3.163,1.812,9.864,2.033,13.193c0.256,3.945,0.555,15.807,0.555,15.807
	S78.453,59.646,77.262,63.104z"/>
<path opacity="0.5" fill="#191819" enable-background="new    " d="M28.746,51.574c0.232-0.705-3.966,2.142-2.388,4.838
	c0.923,1.577,3.37,2.504,4.98,1.268c-0.41-1.381,0.577-1.423,1.245-2.223c1.179-1.412,1.046-0.643,0.501-2.354
	c-0.032-0.104-0.873-1.129-0.912-1.181c-0.196-0.265,0.419-1.019-0.446-1.405c-1.384-0.619-2.122,1.229-2.535,1.979
	c-0.22-0.172-0.512-0.352-0.721-0.548"/>
<path opacity="0.5" fill="#191819" enable-background="new    " d="M53.352,29.299c-1.02-0.162-1.961,0.308-1.617,1.485
	c-0.393,0.096-0.812,0.584-1.205,0.683c0.223,2.229,4.854,5.399,5.994,2.338c0.234-0.625-0.241-1.44-0.137-2.081
	c0.147-0.875,1.01-1.205,0.598-2.169c-0.642-1.499-2.746,0.015-3.82-0.626"/>
<path opacity="0.5" fill="#191819" enable-background="new    " d="M53.184,15.63c-2.225,0.708,0.164,5.536,3.185,3.984
	c3.01-1.544-1.063-5.659-3-4.079"/>
<path opacity="0.5" fill="#191819" enable-background="new    " d="M65.061,11.47c-3.533,1.08,0.365,5.729,2.307,4.155
	c-0.123-0.8-0.497-1.62-0.822-2.314c3.186-0.886-1.18-1.854-1.579-2.026"/>
<path opacity="0.5" fill="#191819" enable-background="new    " d="M42.433,22.481c0.104,1.514,0.862,2.211,2.338,1.851
	c2.027-0.496,1.37-1.7,0.928-3.103c-0.264-0.838,0.03-2.475-1.967-1.692c-1.578,0.621-0.457,2.048-1.485,3.039"/>
<path opacity="0.5" fill="#191819" enable-background="new    " d="M67.083,23.731c-1.53,0.728-1.089,0.965-1.29,2.055
	c-0.025,0.143-0.085,2.166,0.009,2.321c0.616,1.064,4.245,1.395,5.341,0.475c-0.264-0.697-0.658-1.351-1.115-1.866
	c1.427-1.269,0.384-3.541-1.344-2.197c-0.412-0.67-0.812-0.547-1.504-0.601"/>
<path opacity="0.5" fill="#191819" enable-background="new    " d="M52.912,49.574c-1.062-0.107-3.403,1.376-3.931,2.273
	c-0.089,0.155-0.383,2.443-0.444,2.762c-0.141,0.738-1.085,1.229,0.394,1.83c0.356,0.145,2.092-0.112,2.528-0.078
	c0.771,0.062,1.604,1.601,2.631,0.089c0.611-0.902-0.57-2.026-0.594-2.939c-0.027-1.065,1.38-1.077,0.242-2.688
	c-0.762,0.086-0.91-0.375-1.197-1.061"/>
<path opacity="0.5" fill="#191819" enable-background="new    " d="M37.037,38.042c-1.351-0.026-2.538,0.706-1.472,2.106
	c1.146-0.441,2.7,1.162,3.48-0.024c0.475-0.73-0.716-2.393-1.542-2.085"/>
<path opacity="0.5" fill="#191819" enable-background="new    " d="M17.77,66.7c-0.119,1.892,4.853,0.721,2.659-2.224
	c-0.319-0.432-0.808-1.527-2.036-0.672c-0.636,0.442-1.07,2.733-0.808,3.456"/>
<path opacity="0.5" fill="#191819" enable-background="new    " d="M19.689,76.919c0.834-3.14,3.849,1.781,0.964,2.737
	C19.802,78.979,19.534,77.939,19.689,76.919"/>
<path opacity="0.5" fill="#191819" enable-background="new    " d="M31.79,79.174c-0.804-0.102-1.542,0.169-2.191,0.68
	c-0.036,0.136-0.069,0.77-0.058,0.929c2.144,0.21,0.523,2.627,2.101,3.602c0.616,0.382,3.738,0.576,4.246-0.381
	c-0.013,0.021-0.252-2.207-0.247-2.177c-0.115-0.758,0.543-0.855-0.287-1.727c-0.563-0.591-3.24-1.043-4.03-0.922"/>
<path opacity="0.5" fill="#191819" enable-background="new    " d="M32.921,65.777c-3.04,0.861-0.063,1.658,0.49,2.748
	c0.59,0.029,1.297-0.151,1.807-0.453c-0.442-0.965-0.93-2.997-2.203-2.108"/>
<path opacity="0.5" fill="#191819" enable-background="new    " d="M44.388,63.954c0.276,1.301,1.194,1.128,2.179,1.248
	c1.491,0.177,1.143,0.762,1.754-0.896c0.9-2.447-0.852-1.971-2.677-1.488"/>
<path opacity="0.5" fill="#191819" enable-background="new    " d="M48.763,39.555c-2.753,0.542,0.143,3.108,2.057,1.754
	c2.703-1.913-0.917-1.669-2.242-1.661"/>
<path opacity="0.5" fill="#191819" enable-background="new    " d="M62.506,35.848c-2.619,0.563-0.656,3.909,1.083,2.213
	c-0.358-0.826,0.07-1.379,0.306-2.173C63.486,35.864,62.896,35.751,62.506,35.848"/>
<path opacity="0.5" fill="#191819" enable-background="new    " d="M75.889,18.567c-0.382,0.103-0.783,0.384-1.06,0.625
	c2.147,3.352,2.739-0.561,0.871-0.529"/>
<path opacity="0.5" fill="#191819" enable-background="new    " d="M69.704,42.688c-0.89,0.013-1.445,0.586-1.121,1.49
	c0.491,1.363,2.079,0.524,3.019,1.243c0.474-0.104,1.26-0.498,1.604-0.817c-0.448-1.099-0.413-2-0.322-3.084
	c-1.072,0.07-3.07-0.158-3.083,1.354"/>
<path opacity="0.5" fill="#191819" enable-background="new    " d="M64.936,53.967c-2.496-1.404-2.24,2.613-0.588,3.159
	c2.338,0.774,2.15-2.476,1.967-3.589"/>
<path opacity="0.5" fill="#191819" enable-background="new    " d="M50.081,74.324c-0.963,0.297-1.83,1.021-1.476,2.103
	c1.094-0.239,5.961,1.697,3.375-1.636c0.398-0.089,0.822-0.592,1.219-0.684c-0.292-1.246-1.467-1.103-2.415-0.764
	c0.297,0.928,0.047,1.719-0.884,2.004"/>
<path opacity="0.5" fill="#191819" enable-background="new    " d="M62.809,71.835c-0.802-0.03-1.576,0.124-2.281,0.491
	c0.307,0.373,0.361,1.096,0.675,1.466c-0.379,0.19-0.575,0.591-0.94,0.771c0.098,0.24,0.239,0.455,0.346,0.679
	c2.447-0.812,1.744,0.446,3.596,0.85c2.128,0.466,1.939-1.302,1.074-2.677c0.779-0.566,2.921-1.876,0.762-2.46
	c-1.32-0.358-2.062,1.979-3.341,0.278c-0.638,0.065-0.325,0.269-0.356,0.605"/>
<path opacity="0.5" fill="#191819" enable-background="new    " d="M45.996,91.552c0.81-0.422,1.314-5.446,2.888-2.663
	c1.906-0.93,2.298,0.588,1.134,1.848c-0.88,0.955-2.342,1.266-3.484,1.021c-0.162-0.384,0.122-0.325,0.206-0.58"/>
<path opacity="0.5" fill="#191819" enable-background="new    " d="M61.848,82.811c-0.048,0.527-0.259,0.961-1.002,1.172
	c-0.205-2.912-2.771,0.24-3.889,0.646c0.506,3.612,5.616,1.188,4.984-1.165"/>
<path opacity="0.5" fill="#191819" enable-background="new    " d="M75.779,63.854c-0.998,0.258-2.176,0.41-1.801,1.572
	c-2.56,2.752,5.012,0.271,1.895-1.387"/>
<path opacity="0.5" fill="#191819" enable-background="new    " d="M79.062,52.859c-1.285-0.139-4.033,0.871-2.205,2.473
	c1.799,1.576,2.934-1.95,1.554-2.375"/>
<path opacity="0.5" fill="#191819" enable-background="new    " d="M79.236,34.821c-1.205-2.437-1.799,0.794-3.074,1.126
	c0.193,4.438,5.184,1.157,3.07-1.593"/>
</svg>
